<svg width="48" height="48" viewBox="0 0 48 48" fill="none" xmlns="http://www.w3.org/2000/svg">
<rect width="48" height="48" fill="#EAF1FF"/>
<path d="M15 4V11H22V15H15V22H11V15H4V11H11V4H15ZM26 11H44V15H26V11ZM21.552 30.022L15.896 35.68L21.874 41.656L19.044 44.486L13.066 38.506L7.41 44.166L4.582 41.336L10.238 35.68L4.902 30.344L7.732 27.514L13.066 32.85L18.724 27.194L21.552 30.022ZM33 27.996H37.008V32.004H33V27.996ZM26 34H44V38H26V34ZM33 39.996H37.008V44.004H33V39.996Z" fill="#355691"/>
</svg>
