<svg width="48" height="48" viewBox="0 0 48 48" fill="none" xmlns="http://www.w3.org/2000/svg">
<rect width="48" height="48" fill="#EAF1FF"/>
<path d="M42.1453 40.7625L39.6609 26.4375H40.5C41.175 26.4375 41.7188 25.8937 41.7188 25.2188V16.2188C41.7188 15.5438 41.175 15 40.5 15H28.9688V6.46875C28.9688 5.79375 28.425 5.25 27.75 5.25H20.25C19.575 5.25 19.0312 5.79375 19.0312 6.46875V15H7.5C6.825 15 6.28125 15.5438 6.28125 16.2188V25.2188C6.28125 25.8937 6.825 26.4375 7.5 26.4375H8.33906L5.85469 40.7625C5.84063 40.8328 5.83594 40.9031 5.83594 40.9688C5.83594 41.6437 6.37969 42.1875 7.05469 42.1875H40.9453C41.0156 42.1875 41.0859 42.1828 41.1516 42.1687C41.8172 42.0562 42.2625 41.4234 42.1453 40.7625ZM9.5625 18.2812H22.3125V8.53125H25.6875V18.2812H38.4375V23.1562H9.5625V18.2812ZM31.5 38.9062V31.5938C31.5 31.3875 31.3313 31.2188 31.125 31.2188H28.875C28.6687 31.2188 28.5 31.3875 28.5 31.5938V38.9062H19.5V31.5938C19.5 31.3875 19.3313 31.2188 19.125 31.2188H16.875C16.6687 31.2188 16.5 31.3875 16.5 31.5938V38.9062H9.50625L11.6203 26.7188H36.375L38.4891 38.9062H31.5Z" fill="#355691"/>
</svg>
