<svg width="48" height="48" viewBox="0 0 48 48" fill="none" xmlns="http://www.w3.org/2000/svg">
<rect width="48" height="48" fill="#EAF1FF"/>
<path d="M32.2857 18.887C32.469 18.716 32.617 18.5106 32.721 18.2824C32.825 18.0543 32.883 17.8079 32.8918 17.5573C32.9006 17.3067 32.8599 17.0569 32.7721 16.822C32.6843 16.5872 32.5511 16.3719 32.3801 16.1885C32.2092 16.0051 32.0037 15.8572 31.7756 15.7532C31.5474 15.6492 31.3011 15.5911 31.0505 15.5824C30.7999 15.5736 30.55 15.6143 30.3152 15.702C30.0803 15.7898 29.865 15.923 29.6816 16.094L24.0957 21.302L18.8876 15.7141C18.5392 15.3572 18.0649 15.1508 17.5662 15.1392C17.0675 15.1276 16.5841 15.3116 16.2193 15.6519C15.8546 15.9921 15.6375 16.4617 15.6146 16.96C15.5916 17.4582 15.7646 17.9457 16.0966 18.3181L21.3046 23.9041L15.7166 29.1121C15.5268 29.2813 15.3726 29.4868 15.2633 29.7165C15.154 29.9461 15.0916 30.1953 15.0799 30.4494C15.0682 30.7035 15.1074 30.9573 15.1952 31.196C15.283 31.4348 15.4176 31.6535 15.5911 31.8395C15.7646 32.0255 15.9735 32.1749 16.2056 32.279C16.4376 32.3831 16.6882 32.4398 16.9425 32.4458C17.1967 32.4517 17.4496 32.4067 17.6863 32.3136C17.923 32.2204 18.1387 32.0809 18.3206 31.9032L23.9067 26.6971L29.1146 32.2831C29.2828 32.4765 29.4882 32.634 29.7185 32.7463C29.9489 32.8586 30.1995 32.9234 30.4554 32.9368C30.7113 32.9502 30.9673 32.912 31.2081 32.8243C31.4489 32.7367 31.6696 32.6015 31.8571 32.4267C32.0445 32.252 32.1948 32.0413 32.2991 31.8072C32.4034 31.5731 32.4595 31.3204 32.464 31.0642C32.4686 30.808 32.4215 30.5535 32.3256 30.3158C32.2296 30.0782 32.0869 29.8623 31.9057 29.681L26.6996 24.095L32.2857 18.887Z" fill="#355691"/>
<path fill-rule="evenodd" clip-rule="evenodd" d="M3 24C3 12.4023 12.4023 3 24 3C35.5977 3 45 12.4023 45 24C45 35.5977 35.5977 45 24 45C12.4023 45 3 35.5977 3 24ZM24 41.1818C21.7437 41.1818 19.5094 40.7374 17.4248 39.8739C15.3402 39.0105 13.4461 37.7449 11.8506 36.1494C10.2551 34.5539 8.98954 32.6598 8.12607 30.5752C7.2626 28.4906 6.81818 26.2563 6.81818 24C6.81818 21.7437 7.2626 19.5094 8.12607 17.4248C8.98954 15.3402 10.2551 13.4461 11.8506 11.8506C13.4461 10.2551 15.3402 8.98954 17.4248 8.12607C19.5094 7.2626 21.7437 6.81818 24 6.81818C28.5569 6.81818 32.9272 8.6284 36.1494 11.8506C39.3716 15.0728 41.1818 19.4431 41.1818 24C41.1818 28.5569 39.3716 32.9272 36.1494 36.1494C32.9272 39.3716 28.5569 41.1818 24 41.1818Z" fill="#355691"/>
</svg>
