<svg width="48" height="48" viewBox="0 0 48 48" fill="none" xmlns="http://www.w3.org/2000/svg">
<rect width="48" height="48" fill="#EAF1FF"/>
<g clip-path="url(#clip0_699_435)">
<path fill-rule="evenodd" clip-rule="evenodd" d="M39.8125 14.8125V31.875H37.1875V14.8125H31.9375C30.8932 14.8125 29.8917 14.3977 29.1533 13.6592C28.4148 12.9208 28 11.9193 28 10.875V5.625H13.5625C12.8663 5.625 12.1986 5.90156 11.7063 6.39384C11.2141 6.88613 10.9375 7.55381 10.9375 8.25V31.875H8.3125V8.25C8.3125 6.85761 8.86562 5.52226 9.85019 4.53769C10.8348 3.55312 12.1701 3 13.5625 3L28 3L39.8125 14.8125ZM23.695 41.9576C23.71 42.3712 23.8114 42.7771 23.9927 43.1492C24.174 43.5213 24.4312 43.8513 24.7476 44.118C25.0889 44.4015 25.508 44.622 26.005 44.7795C26.502 44.9388 27.0839 45.0184 27.7506 45.0184C28.6379 45.0184 29.3886 44.8801 30.0029 44.6036C30.6241 44.3271 31.0966 43.9421 31.4204 43.4486C31.7514 42.9361 31.9223 42.3366 31.9113 41.7266C31.9113 41.1386 31.7931 40.6486 31.5569 40.2566C31.3167 39.8632 30.9772 39.54 30.5725 39.3195C30.1088 39.0619 29.6088 38.876 29.0894 38.7683L27.4593 38.3903C27.0749 38.3174 26.7116 38.1595 26.3961 37.9282C26.2768 37.8356 26.1808 37.7164 26.1156 37.5802C26.0505 37.4439 26.018 37.2944 26.0208 37.1434C26.0208 36.7339 26.1818 36.3979 26.5038 36.1354C26.8328 35.8694 27.2816 35.7364 27.8504 35.7364C28.2249 35.7364 28.5486 35.7959 28.8216 35.9149C29.0733 36.0153 29.2948 36.1789 29.4648 36.39C29.6263 36.5849 29.7348 36.8181 29.7798 37.0672H31.7485C31.7154 36.5332 31.5346 36.0188 31.2261 35.5815C30.8953 35.1094 30.4414 34.7372 29.9136 34.5052C29.2694 34.2214 28.5698 34.0851 27.8661 34.1063C27.0961 34.1063 26.4163 34.2375 25.8265 34.5C25.2385 34.7607 24.7774 35.1291 24.4431 35.6051C24.1106 36.0829 23.9444 36.642 23.9444 37.2825C23.9444 37.811 24.052 38.2695 24.2673 38.658C24.4825 39.0465 24.7896 39.3676 25.1886 39.6214C25.5894 39.8716 26.0619 40.058 26.6061 40.1805L28.2284 40.5585C28.7709 40.6862 29.1751 40.8551 29.4411 41.0651C29.5719 41.165 29.6767 41.2949 29.7466 41.4439C29.8165 41.5928 29.8495 41.7565 29.8428 41.9209C29.8487 42.1916 29.7707 42.4575 29.6196 42.6821C29.4505 42.9125 29.2179 43.0885 28.9503 43.1888C28.6563 43.3113 28.2949 43.3725 27.8661 43.3725C27.5581 43.3725 27.2781 43.3375 27.0261 43.2675C26.7925 43.2053 26.5714 43.1031 26.3725 42.9656C26.198 42.8523 26.0485 42.7044 25.9334 42.531C25.8182 42.3576 25.7399 42.1625 25.7031 41.9576H23.695ZM13.9143 34.3215H16.2584L12.9141 39.5899L16.2059 44.8189H13.8224L11.5911 41.1045H11.4993L9.26013 44.8189H7L10.255 39.5269L7.0315 34.3215H9.47538L11.6594 38.0962H11.7539L13.9143 34.3215ZM18.9621 43.0496H23.4168V44.8189H16.8858V34.3215H18.9621V43.0496ZM39.0066 34.3215H41.3508L38.0065 39.5899L41.2983 44.8189H38.9148L36.6835 41.1045H36.5916L34.3525 44.8189H32.0924L35.3474 39.5269L32.1239 34.3215H34.5678L36.7518 38.0962H36.8463L39.0066 34.3215Z" fill="#355691"/>
</g>
<defs>
<clipPath id="clip0_699_435">
<rect width="42" height="42" fill="white" transform="translate(3 3)"/>
</clipPath>
</defs>
</svg>
