<svg width="48" height="48" viewBox="0 0 48 48" fill="none" xmlns="http://www.w3.org/2000/svg">
<rect width="48" height="48" fill="#EAF1FF"/>
<path d="M32.5 42V32.47C32.4995 32.0521 32.4166 31.6383 32.256 31.2525C32.0955 30.8666 31.8604 30.5161 31.5644 30.2212C31.2683 29.9262 30.9169 29.6925 30.5305 29.5334C30.144 29.3743 29.7299 29.293 29.312 29.294H18.688C18.2701 29.293 17.856 29.3743 17.4695 29.5334C17.0831 29.6925 16.7317 29.9262 16.4356 30.2212C16.1396 30.5161 15.9045 30.8666 15.744 31.2525C15.5834 31.6383 15.5005 32.0521 15.5 32.47V42M32.5 6.57001V11.294C32.4995 11.712 32.4166 12.1257 32.256 12.5116C32.0955 12.8974 31.8604 13.2479 31.5644 13.5429C31.2683 13.8378 30.9169 14.0715 30.5305 14.2306C30.144 14.3897 29.7299 14.4711 29.312 14.47H18.688C18.2701 14.4711 17.856 14.3897 17.4695 14.2306C17.0831 14.0715 16.7317 13.8378 16.4356 13.5429C16.1396 13.2479 15.9045 12.8974 15.744 12.5116C15.5834 12.1257 15.5005 11.712 15.5 11.294V6.00001M32.5 6.57001C31.6706 6.19414 30.7706 5.99981 29.86 6.00001H15.5M32.5 6.57001C33.188 6.88201 33.822 7.31801 34.368 7.86001L39.132 12.61C39.7235 13.1987 40.1931 13.8983 40.5136 14.6688C40.8342 15.4393 40.9995 16.2655 41 17.1V35.644C40.999 36.4799 40.8332 37.3074 40.5123 38.0793C40.1914 38.8511 39.7216 39.5522 39.1297 40.1424C38.5378 40.7326 37.8354 41.2005 37.0626 41.5192C36.2899 41.838 35.4619 42.0013 34.626 42H13.376C12.5401 42.0016 11.7121 41.8385 10.9392 41.52C10.1664 41.2015 9.46384 40.7339 8.87175 40.1438C8.27966 39.5538 7.80961 38.8529 7.48845 38.0811C7.16729 37.3094 7.00131 36.4819 7 35.646V12.352C7.00157 11.5163 7.16774 10.689 7.48902 9.91753C7.8103 9.14601 8.28039 8.44533 8.87245 7.8555C9.46452 7.26566 10.167 6.79821 10.9397 6.47985C11.7124 6.16148 12.5403 5.99843 13.376 6.00001H15.5" stroke="#355691" stroke-width="3" stroke-linecap="round" stroke-linejoin="round"/>
</svg>
